<?xml version="1.0" encoding="utf-8"?>
<!-- Generator: Adobe Illustrator 19.1.0, SVG Export Plug-In . SVG Version: 6.00 Build 0)  -->
<svg version="1.1" id="Layer_1" xmlns="http://www.w3.org/2000/svg" xmlns:xlink="http://www.w3.org/1999/xlink" x="0px" y="0px"
	 viewBox="0 0 640.7 186.4" style="enable-background:new 0 0 640.7 186.4;" xml:space="preserve">
<style type="text/css">
	.st0{fill:#03A9F4;}
	.st1{fill:#FFFFFF;}
</style>
<rect class="st0" width="640.7" height="186.4"/>
<g>
	<g>
		<path class="st1" d="M103.4,77.3c2.7-10.5,7.7-29.9-3.5-39.2c-7-5.7-11.9-8.4-16-9.6c-0.3-0.1-0.7-0.3-1.1-0.4
			c-2-0.6-4.1-0.8-6.2-0.8c-0.1,0-0.1,0-0.2,0v0c-9.3,0.2-19,5.1-19.5,5.5C42,41.4,35.5,52.2,30.6,62.5c-5.5,11.6-4.2,26.2-4.2,26.8
			l0,0c-1.1,1-2.3,2.2-3.3,3.7c-4.9,6.8-9.6,17.8-8,28.1c1.5,9.9,3.5,13,12.3,19.8c1.8,1,3.9,1.5,7.4,1.5c1.1,0,2.4,0,3.9-0.1
			c3.3-0.2,5-1.1,5.8-1.9c1.6,2.4,3.3,4.1,4.3,4.9c2.8,2.4,6.8,4.5,11.8,4.5c3.8,0,8.2-1.2,13.3-4.5c2.4-1.5,4.6-3.3,6.7-5.2
			c0.5-0.4,1-0.9,1.5-1.4l0,0c7.9-7.7,13.4-17.6,14.9-27.6c3.7-5.2,7.1-10.5,7.8-13.3c0-0.1,0.1-0.2,0.1-0.3c0.5-1.3,0.8-2.9-2-6.4
			c0-0.1-0.1-0.2-0.1-0.4c-0.4-1.1-1.8-4.4,0.4-12.7L103.4,77.3z M57.7,34.1c0.7-0.5,9.9-5,18.6-5.2v0c2.2,0.1,4.4,0.3,6.9,1
			c6.5,2.6,10.2,11.9,11.3,22.4c-2.3-7.7-6-12.3-10.5-12.9c-7.1-1-12.6,1.2-24.5,8.1l-0.1,0.1c-0.1,0.1-0.3,0.3-0.6,0.5
			c-4.2,3.4-7.8,6.7-10.7,9.8l0,0c-1.8,1.5-7.2,4.8-10.1,2.9c-2.8-1.9,0-8.1,1.3-10.4l0,0C43.5,44.5,49.2,38.9,57.7,34.1z
			 M94.7,65.4c-0.4,4.8-0.9,10.2-1.5,15.4c0.5-5,1.1-10.6,1.2-12.7l0-0.6c0.2-2.8,0.4-5.7,0.5-8.1C94.9,61.5,94.9,63.5,94.7,65.4z
			 M53.6,126.1c1.1-4.6,6.1-19.1,17.8-27.8c11-8.2,17.4-4.9,18.9-4c-0.4,2.5-0.9,5.6-1.5,7.3c-0.2,0.6-0.7,1.8-1.4,3.2
			c-1.7-1.4-6-3.9-11.9-0.1c-4.9,3.1-12.8,11.8-14.1,20.4c-0.6,4.1,0.3,7.7,2.7,10.6l0.2,0.2c0.2,0.1,0.6,0.4,0.6,0.5
			c-2.2,2.6-3.3,3.9-3.3,3.9l-0.3,0.3l0.1,0.4c0.1,0.3,0.8,2.2,2.1,3.4c-2.2,0-4.2-0.5-5.9-1.2C53.6,141.4,53.3,130.3,53.6,126.1z
			 M44.6,109.7c-0.7,1.1-1.2,2.4-1.7,3.7c-0.8,1.9-1.4,3.9-1.9,6c-0.8,3.6-0.9,6.9-0.6,9.7c0,0,0,0,0,0c0,0,0,0.1,0,0.2
			c0,0.1,0,0.1,0,0.2c-0.4,0.5-3,0.6-3.6,0.5c-4.1-1.5-6-6.8-5.4-15.6c0.5-7.2,3.9-14.2,8.7-17.7c1.5-1.1,3-1.5,4.6-1.2
			c3,0.6,5.4,3.5,6.2,4.6C48.8,102.7,46.6,106,44.6,109.7z M38.5,84.7c0.5-0.1,1-0.2,1.5-0.3c1.2-0.1,2.7-0.1,3.4-0.1
			c2.6,0.4,4.7,1.2,6.4,2.1c2.5,1.7,4.1,3.3,5.1,4.7c0.8,1.1,1.3,2.1,1.5,2.7c-1.2,1.1-2.5,2.5-3.7,4.1c-0.3,0.3-0.6,0.7-0.9,1
			c-1.1-1.4-3.6-4.2-6.9-4.8c-2-0.4-3.9,0.1-5.8,1.5c-5.2,3.8-8.8,11.2-9.3,18.8c-0.6,9.6,1.5,15.3,6.4,17.1
			c0.2,0.1,0.8,0.1,1.4,0.1c0.9,0,2-0.1,2.9-0.4c0.2,0.8,0.4,1.7,0.6,2.5c0.6,2,1.4,3.8,2.2,5.3c-2.9,1.5-7.4,1.1-10.8,0.2
			c-3.4-1-6.6-5.1-6.9-5.5c-5.6-8.5-5.3-15.2-5.1-19.6c0-0.7,0.1-1.3,0.1-1.9c0-4.4,2.6-12.7,6.7-19C31.4,87.2,37.8,85,38.5,84.7z
			 M57.7,92.7c-0.3-0.6-0.8-1.5-1.5-2.5c-0.3-0.4-0.6-0.8-0.9-1.2c0,0-0.1-0.1-0.1-0.1c-0.1-0.2-0.3-0.3-0.4-0.5
			c-0.2-0.2-0.3-0.4-0.5-0.5c0,0-0.1-0.1-0.1-0.1c-0.9-0.9-2.1-1.8-3.5-2.6c0,0,0,0-0.1,0c-2.4-1.6-5-2.2-7.3-2.3
			c-1.1-0.1-3.7-0.1-6.7,1c0,0-0.1,0-0.1,0c0-2,1.4-8.1,5.7-15.8c3.1-5.4,9-11.8,17.6-18.8c0.3-0.2,0.5-0.4,0.6-0.5
			c11.6-6.6,16.9-8.8,23.5-7.9c4.1,0.6,7.5,5.1,9.6,12.8l0.1,0.2c0.4,1.4-0.2,10.1-0.4,13.8l0,0.6c-0.2,3.4-1.6,16.5-2,20.8l0,0
			c-5.5-3.9-8.7-3.9-10-3.8l-0.1,0c-2.9-0.8-7.7-0.4-7.7-0.4C66.6,85.4,59.9,90.7,57.7,92.7z M85.5,106.1
			C85.5,106.1,85.6,106.1,85.5,106.1c0.4,0,0.6,0.4,0.8,0.9l-2,3.7c-1.5,2.6-3.2,5.6-3.7,6.5c0,0.1-0.1,0.1-0.1,0.2
			c-0.5,0.7-3.8,5.2-7.3,9.6c-0.3,0.4-0.6,0.8-1,1.1c-2.5,2.8-4.6,5.1-6.2,6.9c-0.4-0.5-0.7-1.1-0.7-1.5c0-0.1,0-0.3,0.3-0.4
			c1-0.8,10.3-7.6,15.1-17.2c0.4-0.8,4-8.2,4-9.3C84.6,106.5,85.1,106.1,85.5,106.1z M83.1,106.6c-0.1,0.9-3.2,7.5-3.8,8.7
			c-4.7,9.4-14.2,16.4-14.6,16.7c-0.4,0.3-0.6,0.6-0.8,1.1c-1.2-2.2-1.6-4.8-1.2-7.7c1.3-8.2,8.8-16.4,13.5-19.4
			c3.7-2.4,6.6-2,8.5-1.2C83.8,105.2,83.1,105.9,83.1,106.6z M66.5,136.7c1.7-1.4,4.4-4.6,7.1-8c0.2-0.2,0.3-0.3,0.5-0.5
			c2.3-2.5,4.4-5.3,6.4-8.2c1.3-1.9,2.4-3.6,3.2-5.1l0.1-0.1c1.4-2.5,2.7-4.8,3.7-6.8c0.1-0.2,0.2-0.3,0.2-0.4l0.1-0.2l0,0
			c0.1-0.2,0.2-0.4,0.3-0.6l0.3-0.6l0,0c0.6-1.2,1-2.2,1.3-3c-0.5,1.8-1,3.3-1.5,4.3c-2.5,4.9-9.8,17.9-25,33.1
			C64,139.7,65,138.5,66.5,136.7z M31.9,63.1c1.1-2.3,2.3-4.7,3.7-7c-0.4,2.3-0.2,4.6,1.7,5.9c0.9,0.6,1.9,0.8,3,0.8
			c1.6,0,3.2-0.5,4.7-1.2c-1.6,2-3,3.9-4,5.7c-4.2,7.3-6.1,14.3-5.8,17c-1.3,0.4-4.1,1.5-7.2,3.9C27.6,84.7,27.4,72.7,31.9,63.1z
			 M16.5,120.9c-1.5-9.9,3-20.5,7.8-27c1.4-1.9,2.9-3.4,4.4-4.5c-0.8,0.9-1.6,1.8-2.4,2.9c-4.3,6.5-6.9,15.1-7,19.8
			c0,0.6,0,1.2-0.1,1.9c-0.2,4.6-0.5,11.7,5.4,20.5c0.3,0.6,3.8,5,7.7,6.2c0.7,0.2,1.4,0.4,2.1,0.5c-3,0-4.8-0.4-6.3-1.2
			C19.8,133.2,18,130.4,16.5,120.9z M49.7,144.2c-1-0.8-2.9-2.7-4.6-5.5c-0.3-0.5-1.7-3.2-2.5-5.9c-0.3-1-0.5-2.2-0.7-3.3
			c0-0.4,0-1.3,0-2.4c0.1-2.9,0.6-7.1,1.7-11c0.2-0.8,0.5-1.6,0.8-2.4c0.5-1.2,1-2.4,1.6-3.5c0,0,0-0.1,0-0.1c1-1.7,3.4-5.5,6-9.1
			c0.9-1.2,1.9-2.3,2.7-3.3c1.4-1.6,2.4-2.6,2.8-3l0.2-0.2l0.4-0.3l0,0l0,0l0,0c1.6-1.4,8.5-7.4,15.1-8.1c1.2-0.1,5.1-0.3,7.3,0.3
			l0.1,0l0.3,0c1.2,0,4.2-0.1,9.7,4.1c0,0.1,0,0.3-0.1,0.4c-0.1,0.4-0.1,1.1-0.2,1.7c-2.5-1.3-9.3-3.5-20,4.4
			c-12.6,9.4-18.2,26.3-18.6,30c0,0.2-0.1,0.5-0.1,0.8c-0.5,3.8-2,15.5,7.3,19.5l0.2,0.1c0.9,0.2,2.1,0.4,3.7,0.4c0.3,0,0.6,0,1,0
			C57.7,149.2,52.9,146.9,49.7,144.2z M80.3,138.5c-9.9,9.1-17.7,8.4-20.7,7.7c-1-0.4-1.9-1-2.6-1.6c1.8,0.8,4,1.3,6.5,1.3
			c5.3,0,11.8-2.4,17.7-9.2c7.8-9,11.8-15.6,13.2-22c0.1-0.2,0.3-0.4,0.4-0.6C92.8,123,87.6,131.7,80.3,138.5z M68.9,143.6
			c0.4-0.4,0.9-0.9,1.5-1.5c4.5-4.5,15-15.1,18.6-19.9l0.7-0.9c0.7-0.9,1.5-2,2.3-3.1c-1.9,5.1-5.6,10.6-11.7,17.6
			C76.5,140,72.5,142.4,68.9,143.6z M101.4,91.4c0,0.1,0.1,0.2,0.1,0.2l0,0.2l0.1,0.2c2.6,3.2,2.1,4.4,1.8,5.1
			c-0.1,0.2-0.1,0.3-0.2,0.5c-1.2,4.5-10.5,16.9-15,22.9l-0.7,0.9c-3.5,4.7-14,15.2-18.4,19.8c-0.9,0.9-1.6,1.6-1.9,2
			c-1.4,0.3-2.4,0.1-2.9-0.4c-0.3-0.3-0.4-0.7-0.4-1c15.5-15.4,23-28.7,25.5-33.7c3.1-6.2,5.2-27.2,6.5-42.4
			c1.1-12.6-1.2-26.3-7.2-33.3c2.8,1.5,6,3.7,10,7c10.6,8.7,5.7,27.6,3.1,37.7l-0.2,0.8C99.5,86.6,100.9,90.1,101.4,91.4z"/>
	</g>
	<g>
		<path class="st1" d="M217.3,95.4c0,7.1-1,13.7-3.1,19.9c-2.1,6.2-5.1,11.6-9,16.2c-3.9,4.6-8.8,8.2-14.5,10.8s-12.2,3.9-19.5,3.9
			c-7.3,0-13.8-1.3-19.5-3.9c-5.8-2.6-10.6-6.2-14.6-10.8c-3.9-4.6-7-10-9-16.2c-2.1-6.2-3.1-12.9-3.1-19.9s1-13.7,3.1-19.9
			c2.1-6.2,5.1-11.6,9-16.2c3.9-4.6,8.8-8.2,14.6-10.8c5.8-2.6,12.3-3.9,19.5-3.9c7.3,0,13.7,1.3,19.5,3.9
			c5.7,2.6,10.5,6.2,14.5,10.8c3.9,4.6,7,10,9,16.2C216.2,81.7,217.3,88.4,217.3,95.4z M130.9,95.4c0,6.3,0.9,12.2,2.7,17.7
			c1.8,5.5,4.4,10.4,7.9,14.5c3.4,4.1,7.7,7.4,12.7,9.9c5,2.4,10.7,3.7,17,3.7c6.3,0,12-1.2,16.9-3.7c4.9-2.4,9.1-5.7,12.6-9.9
			c3.4-4.1,6.1-9,7.9-14.5c1.8-5.5,2.7-11.4,2.7-17.7s-0.9-12.2-2.7-17.7c-1.8-5.5-4.4-10.4-7.9-14.5c-3.4-4.1-7.6-7.4-12.6-9.9
			c-4.9-2.4-10.6-3.7-16.9-3.7c-6.4,0-12,1.2-17,3.7c-5,2.4-9.2,5.7-12.7,9.9c-3.4,4.1-6.1,9-7.9,14.5
			C131.8,83.3,130.9,89.2,130.9,95.4z"/>
		<path class="st1" d="M255.8,144h-6.4l-28.2-69.9h6l25.3,63.9h0.3l23.7-63.9h5.7L255.8,144z"/>
		<path class="st1" d="M291.4,109.7v0.8c0,4.1,0.5,8,1.6,11.7c1.1,3.7,2.7,7,4.8,9.8c2.1,2.8,4.8,5,8,6.7c3.2,1.6,7,2.4,11.3,2.4
			c7,0,12.6-1.8,16.6-5.5c4.1-3.7,6.9-8.8,8.5-15.3h5.2c-1.5,8.2-4.9,14.4-10,18.8c-5.1,4.4-11.9,6.5-20.3,6.5
			c-5.2,0-9.7-0.9-13.5-2.8c-3.9-1.9-7.1-4.4-9.7-7.6c-2.6-3.2-4.5-7-5.8-11.4c-1.3-4.4-1.9-9.1-1.9-14.2c0-4.9,0.7-9.6,2-14.1
			c1.3-4.5,3.3-8.4,5.9-11.8c2.6-3.4,5.9-6.1,9.9-8.2s8.6-3.1,13.9-3.1c4.9,0,9.2,0.9,13,2.7c3.8,1.8,6.9,4.3,9.5,7.4
			c2.5,3.1,4.5,6.8,5.8,10.9c1.3,4.1,2,8.5,2,13.3c0,0.5,0,1-0.1,1.6c0,0.6-0.1,1.1-0.1,1.4H291.4z M342.8,105.2
			c-0.2-3.8-0.8-7.4-1.9-10.8c-1.1-3.4-2.7-6.4-4.8-9c-2.1-2.6-4.7-4.6-7.8-6.2c-3-1.5-6.5-2.3-10.4-2.3c-4.2,0-7.9,0.8-11.1,2.4
			c-3.2,1.6-5.9,3.7-8,6.3c-2.2,2.6-3.9,5.6-5,9c-1.2,3.4-1.9,7-2.2,10.6H342.8z"/>
		<path class="st1" d="M365.3,89.6h0.4c0.6-2.3,1.8-4.4,3.5-6.4c1.7-2,3.7-3.7,6.1-5.2c2.4-1.4,5.1-2.6,8-3.3c2.9-0.8,6-1.1,9.2-1
			v5.2c-2.7-0.4-5.8-0.1-9.3,0.8c-3.5,0.9-6.8,2.9-10,6c-1.3,1.4-2.4,2.7-3.3,3.9c-1,1.3-1.7,2.7-2.4,4.2c-0.6,1.5-1.1,3.3-1.5,5.2
			c-0.4,1.9-0.6,4.2-0.7,6.8V144h-5.2V74.1h5.2V89.6z"/>
		<path class="st1" d="M403.1,46.9V89h0.3c0.9-2.6,2.2-5,3.9-7c1.7-2,3.6-3.8,5.9-5.2c2.2-1.5,4.6-2.5,7.3-3.3
			c2.6-0.7,5.3-1.1,8-1.1c4.1,0,7.6,0.5,10.4,1.5c2.9,1,5.2,2.3,7,3.9c1.8,1.6,3.2,3.5,4.3,5.5c1,2,1.8,4.1,2.2,6.2
			c0.5,2.1,0.7,4.1,0.8,6.1c0.1,2,0.1,3.7,0.1,5.1V144h-5.2V99.8c0-1.7-0.1-3.9-0.4-6.5c-0.3-2.6-1.1-5.1-2.4-7.6
			c-1.3-2.4-3.3-4.5-6-6.2c-2.7-1.7-6.4-2.6-11.1-2.6c-4,0-7.5,0.7-10.6,2.2c-3.1,1.5-5.7,3.5-7.9,6.1s-3.8,5.7-5,9.3
			c-1.1,3.6-1.7,7.5-1.7,11.8V144h-5.2V46.9H403.1z"/>
		<path class="st1" d="M470.5,109.7v0.8c0,4.1,0.5,8,1.6,11.7c1.1,3.7,2.7,7,4.8,9.8c2.1,2.8,4.8,5,8,6.7c3.2,1.6,7,2.4,11.3,2.4
			c7,0,12.6-1.8,16.6-5.5c4.1-3.7,6.9-8.8,8.5-15.3h5.2c-1.5,8.2-4.9,14.4-10,18.8c-5.1,4.4-11.9,6.5-20.3,6.5
			c-5.2,0-9.7-0.9-13.5-2.8c-3.9-1.9-7.1-4.4-9.7-7.6c-2.6-3.2-4.5-7-5.8-11.4c-1.3-4.4-1.9-9.1-1.9-14.2c0-4.9,0.7-9.6,2-14.1
			c1.3-4.5,3.3-8.4,5.9-11.8c2.6-3.4,5.9-6.1,9.9-8.2s8.6-3.1,13.9-3.1c4.9,0,9.2,0.9,13,2.7c3.8,1.8,6.9,4.3,9.5,7.4
			c2.5,3.1,4.5,6.8,5.8,10.9c1.3,4.1,2,8.5,2,13.3c0,0.5,0,1-0.1,1.6c0,0.6-0.1,1.1-0.1,1.4H470.5z M521.9,105.2
			c-0.2-3.8-0.8-7.4-1.9-10.8c-1.1-3.4-2.7-6.4-4.8-9c-2.1-2.6-4.7-4.6-7.8-6.2c-3-1.5-6.5-2.3-10.4-2.3c-4.2,0-7.9,0.8-11.1,2.4
			c-3.2,1.6-5.9,3.7-8,6.3c-2.2,2.6-3.9,5.6-5,9c-1.2,3.4-1.9,7-2.2,10.6H521.9z"/>
		<path class="st1" d="M585.6,130.1h-0.3c-0.8,2.1-2,4.1-3.5,5.9c-1.5,1.9-3.4,3.5-5.6,5c-2.2,1.5-4.7,2.6-7.6,3.4
			c-2.8,0.8-5.9,1.2-9.3,1.2c-7.4,0-13.2-1.6-17.3-4.8s-6.1-8.2-6.1-14.9c0-4.1,0.8-7.4,2.4-10s3.7-4.6,6.2-6.1
			c2.5-1.5,5.3-2.6,8.3-3.2c3-0.6,6-1.1,8.8-1.4l8-0.7c3.7-0.3,6.6-0.7,8.8-1.3c2.1-0.6,3.7-1.4,4.8-2.4c1.1-1,1.8-2.4,2-4
			c0.3-1.6,0.4-3.7,0.4-6.1c0-1.9-0.4-3.7-1.1-5.3c-0.7-1.6-1.9-3.1-3.4-4.4c-1.5-1.3-3.5-2.3-6-3c-2.4-0.7-5.4-1.1-9-1.1
			c-6.3,0-11.3,1.5-15.2,4.6c-3.9,3.1-6,7.8-6.3,14h-5.2c0.4-7.7,2.8-13.5,7.4-17.3c4.6-3.9,11.1-5.8,19.5-5.8s14.6,1.7,18.4,5
			c3.9,3.3,5.8,7.6,5.8,13v40.7c0,1,0,2,0.1,3c0,1,0.2,1.9,0.5,2.7c0.3,0.8,0.7,1.5,1.4,2c0.6,0.5,1.5,0.7,2.7,0.7
			c0.9,0,2.2-0.1,3.8-0.4v4.4c-1.4,0.4-2.8,0.5-4.2,0.5c-2.1,0-3.7-0.3-5-0.8s-2.2-1.3-2.8-2.2c-0.6-0.9-1.1-2-1.3-3.2
			c-0.2-1.2-0.3-2.6-0.3-4V130.1z M585.6,104.3c-1.3,1.5-3.2,2.6-5.8,3.1s-5.5,1-8.6,1.2l-8.7,0.8c-2.5,0.3-5.1,0.7-7.6,1.2
			c-2.5,0.5-4.8,1.3-6.9,2.5c-2,1.2-3.7,2.8-5,4.8c-1.3,2-1.9,4.7-1.9,8c0,5.2,1.6,9,4.9,11.5c3.3,2.5,7.8,3.7,13.5,3.7
			c5.9,0,10.6-1.1,14-3.2c3.4-2.1,6.1-4.6,7.9-7.3c1.8-2.8,3-5.4,3.5-8c0.5-2.6,0.7-4.3,0.7-5.2V104.3z"/>
		<path class="st1" d="M612.4,89.6h0.4c0.6-2.3,1.8-4.4,3.5-6.4c1.7-2,3.7-3.7,6.1-5.2c2.4-1.4,5.1-2.6,8-3.3c2.9-0.8,6-1.1,9.2-1
			v5.2c-2.7-0.4-5.8-0.1-9.3,0.8c-3.5,0.9-6.8,2.9-10,6c-1.3,1.4-2.4,2.7-3.3,3.9c-1,1.3-1.7,2.7-2.4,4.2c-0.6,1.5-1.1,3.3-1.5,5.2
			c-0.4,1.9-0.6,4.2-0.7,6.8V144h-5.2V74.1h5.2V89.6z"/>
	</g>
</g>
</svg>
